<?xml version="1.0" encoding="utf-8"?>
<!-- Generator: Adobe Illustrator 18.1.0, SVG Export Plug-In . SVG Version: 6.00 Build 0)  -->
<!DOCTYPE svg PUBLIC "-//W3C//DTD SVG 1.1//EN" "http://www.w3.org/Graphics/SVG/1.1/DTD/svg11.dtd">
<svg version="1.1" id="레이어_1" xmlns="http://www.w3.org/2000/svg" xmlns:xlink="http://www.w3.org/1999/xlink" x="0px"
	 y="0px" viewBox="0 0 80 73" style="enable-background:new 0 0 80 73;" xml:space="preserve">
<style type="text/css">
	.st0{fill-rule:evenodd;clip-rule:evenodd;fill:#FFCF97;}
</style>
<path class="st0" d="M52.4,50.5c-1.2,1.7-2.2,3.6-2.7,5.7H30.3c-0.5-1.7-1.2-3.3-2.1-4.7c-0.9-1.5-2-2.5-3.1-3.9
	c-2.5-3.2-4-7.2-4-11.6c0-10.4,8.4-18.8,18.8-18.8c10.4,0,18.8,8.4,18.8,18.8c0,4.3-1.4,8.2-3.8,11.4C54.1,48.5,53.1,49.4,52.4,50.5
	L52.4,50.5z M37.7,9.5V2.4c0-3,4.5-3,4.5,0v7.1C42.3,12.5,37.7,12.5,37.7,9.5L37.7,9.5z M13.5,38.3l-7.1,0c-3,0-3-4.5,0-4.5l7.1,0
	C16.5,33.7,16.5,38.3,13.5,38.3L13.5,38.3z M15.9,24.7l-6.1-3.6c-2.6-1.5-0.3-5.4,2.3-3.9l6.2,3.6C20.8,22.3,18.5,26.2,15.9,24.7
	L15.9,24.7z M24.8,14.2L21.2,8c-1.5-2.6,2.4-4.9,3.9-2.3l3.6,6.2C30.2,14.5,26.3,16.7,24.8,14.2L24.8,14.2z M66.5,33.7l7.1,0
	c3,0,3,4.5,0,4.5l-7.1,0C63.5,38.3,63.5,33.7,66.5,33.7L66.5,33.7z M61.8,20.8l6.2-3.6c2.6-1.5,4.9,2.4,2.3,3.9l-6.1,3.5
	C61.5,26.2,59.2,22.3,61.8,20.8L61.8,20.8z M51.3,11.9l3.6-6.1c1.5-2.6,5.4-0.3,3.9,2.3l-3.6,6.2C53.7,16.7,49.8,14.5,51.3,11.9
	L51.3,11.9z M45,70.2c-1.1,1.6-2.9,2.7-5,2.7c-2.1,0-3.9-1.1-5-2.7H45L45,70.2z M31.5,59.1h17c1.1,0,2.1,0.9,2.1,2.1v1.9H29.4v-1.9
	C29.4,60,30.3,59.1,31.5,59.1L31.5,59.1z M50.6,64.6v1.9c0,1.1-0.9,2.1-2.1,2.1h-17c-1.1,0-2.1-0.9-2.1-2.1v-1.9H50.6L50.6,64.6z"/>
</svg>
