<?xml version="1.0" encoding="utf-8"?>
<!-- Generator: Adobe Illustrator 18.1.0, SVG Export Plug-In . SVG Version: 6.00 Build 0)  -->
<!DOCTYPE svg PUBLIC "-//W3C//DTD SVG 1.1//EN" "http://www.w3.org/Graphics/SVG/1.1/DTD/svg11.dtd">
<svg version="1.1" id="Layer_1" xmlns="http://www.w3.org/2000/svg" xmlns:xlink="http://www.w3.org/1999/xlink" x="0px" y="0px"
	 viewBox="0 170.3 595.3 501.3" enable-background="new 0 170.3 595.3 501.3" xml:space="preserve">
<g>
	<path fill="#B8D0D9" d="M540.5,452.3c-4.7,0-7.8,3.1-7.8,7.8v188c0,4.7-3.1,7.8-7.8,7.8H70.5c-4.7,0-7.8-3.1-7.8-7.8v-188
		c0-4.7-3.1-7.8-7.8-7.8s-7.8,3.1-7.8,7.8v188c0,12.5,11,23.5,23.5,23.5h454.3c12.5,0,23.5-11,23.5-23.5v-188
		C548.3,455.4,545.2,452.3,540.5,452.3z"/>
	<g>
		<path fill="#B8D0D9" d="M7.8,452.3h579.6c3.1,0,4.7-1.6,6.3-3.1c1.6-1.6,1.6-4.7,1.6-6.3l-62.7-250.6c-1.6-6.3-6.3-21.9-23.5-21.9
			h-423c-17.2,0-21.9,15.7-23.5,21.9L0,442.9c0,1.6,0,4.7,1.6,6.3S4.7,452.3,7.8,452.3z M78.3,195.4c3.1-9.4,4.7-9.4,7.8-9.4h423
			c1.6,0,4.7,0,7.8,9.4L578,436.6H17.2L78.3,195.4z"/>
		<path fill="#B8D0D9" d="M336.8,233c-4.7,0-7.8,3.1-7.8,7.8v141c0,4.7,3.1,7.8,7.8,7.8c4.7,0,7.8-3.1,7.8-7.8v-141
			C344.6,236.1,341.5,233,336.8,233z"/>
		<path fill="#B8D0D9" d="M446.5,233L446.5,233c-4.7,0-7.8,4.7-7.8,9.4l15.7,141c0,4.7,4.7,7.8,9.4,6.3c4.7,0,7.8-4.7,6.3-9.4
			l-15.7-141C454.3,236.1,451.2,233,446.5,233z"/>
		<path fill="#B8D0D9" d="M242.8,233c-4.7,0-7.8,3.1-7.8,7.8v141c0,4.7,3.1,7.8,7.8,7.8c4.7,0,7.8-3.1,7.8-7.8v-141
			C250.6,236.1,247.5,233,242.8,233z"/>
		<path fill="#B8D0D9" d="M150.4,233C148.8,233,148.8,233,150.4,233c-6.3,0-9.4,3.1-9.4,6.3l-15.7,141c0,4.7,3.1,9.4,6.3,9.4
			c4.7,0,9.4-3.1,9.4-6.3l15.7-141C156.7,237.7,153.5,233,150.4,233z"/>
	</g>
</g>
</svg>
