<?xml version="1.0" encoding="utf-8"?>
<!-- Generator: Adobe Illustrator 18.1.0, SVG Export Plug-In . SVG Version: 6.00 Build 0)  -->
<!DOCTYPE svg PUBLIC "-//W3C//DTD SVG 1.1//EN" "http://www.w3.org/Graphics/SVG/1.1/DTD/svg11.dtd">
<svg version="1.1" id="Layer_1" xmlns="http://www.w3.org/2000/svg" xmlns:xlink="http://www.w3.org/1999/xlink" x="0px" y="0px"
	 viewBox="0 154.9 594.4 532.1" enable-background="new 0 154.9 594.4 532.1" xml:space="preserve">
<g>
	<path fill="#FFFFFF" d="M593.6,678.7V677c-20-73.2-98.1-89.8-139.7-99.8c-10-1.7-18.3-3.3-21.6-5c-31.6-13.3-49.9-33.3-56.5-61.5
		c28.3-24.9,53.2-63.2,66.5-104.8c15-18.3,23.3-38.2,23.3-54.9c0-11.6-3.3-20-10-28.3c-3.3-93.1-69.8-166.3-153-167.9l-3.3,0
		c-81.5,0-148,71.5-153,163c-10,8.3-15,18.3-15,31.6c0,20,11.6,43.2,29.9,64.8c13.3,36.6,34.9,69.8,59.9,91.5
		c-6.7,26.6-24.9,48.2-56.5,61.5c-6.7,3.3-15,5-23.3,6.7C99.8,583.9,20,602.2,0,675.4c0,5,1.7,10,6.7,11.6c1.7,0,3.3,0,3.3,0h1.7
		H582h1.7c0,0,0,0,1.7,0h1.7c1.7,0,3.3-1.7,5-3.3C593.6,682,595.3,680.3,593.6,678.7C595.3,678.7,593.6,678.7,593.6,678.7z M20,672
		c21.6-56.5,86.5-71.5,124.7-81.5c10-1.7,18.3-5,23.3-6.7c46.6-20,63.2-53.2,68.2-78.2c0-3.3,0-6.7-3.3-8.3
		c-24.9-21.6-44.9-53.2-58.2-89.8c0-1.7-1.7-1.7-1.7-3.3c-16.6-18.3-26.6-38.2-26.6-54.9c0-10,3.3-15,11.6-20
		c1.7-1.7,3.3-3.3,3.3-6.7c3.3-84.8,64.8-151.3,138-151.3h1.7c74.8,1.7,134.7,69.8,136.3,154.6c0,1.7,1.7,5,3.3,6.7
		c5,5,8.3,10,8.3,18.3c0,13.3-6.7,29.9-20,46.6c0,0-1.7,1.7-1.7,3.3c-13.3,41.6-36.6,79.8-64.8,101.4c-1.7,1.7-3.3,5-3.3,8.3
		c5,24.9,20,56.5,68.2,78.2c5,1.7,15,5,24.9,6.7c39.9,8.3,103.1,23.3,124.7,78.2H20V672z"/>
	<path fill="#FFFFFF" d="M299.3,425.9c-3.3,0-6.7,1.7-10,5c-3.3,3.3-5,6.7-5,10s1.7,6.7,5,10c3.3,3.3,6.7,5,10,5s6.7-1.7,10-5
		c3.3-3.3,5-6.7,5-10s-1.7-6.7-5-10C307.6,427.6,304.3,425.9,299.3,425.9z"/>
	<path fill="#FFFFFF" d="M345.9,241.4c-10-8.3-24.9-13.3-43.2-13.3c-6.7,0-13.3,0-20,1.7c-6.7,1.7-15,3.3-23.3,5
		c-3.3,0-3.3,1.7-3.3,5v11.6c0,3.3,1.7,3.3,5,3.3c8.3-3.3,16.6-5,23.3-6.7c6.7-1.7,13.3-1.7,18.3-1.7c11.6,0,21.6,3.3,29.9,10
		c8.3,6.7,11.6,16.6,11.6,28.3c0,10-1.7,20-6.7,28.3c-1.7,3.3-5,6.7-8.3,11.6c-3.3,3.3-6.7,8.3-11.6,13.3c-5,5-8.3,8.3-11.6,13.3
		c-3.3,3.3-5,6.7-6.7,10c-5,10-8.3,21.6-8.3,34.9c0,1.7,0,3.3,0,3.3s1.7,0,3.3,0H306c1.7,0,3.3,0,3.3,0s0-1.7,0-3.3
		c0-10,3.3-21.6,8.3-29.9c1.7-3.3,5-6.7,8.3-11.6c3.3-3.3,6.7-8.3,11.6-13.3c5-5,8.3-10,11.6-13.3c3.3-3.3,5-6.7,6.7-10
		c5-10,8.3-20,8.3-31.6C364.2,266.3,359.2,251.3,345.9,241.4z"/>
</g>
</svg>
