<?xml version="1.0" encoding="utf-8"?>
<!-- Generator: Adobe Illustrator 18.1.0, SVG Export Plug-In . SVG Version: 6.00 Build 0)  -->
<!DOCTYPE svg PUBLIC "-//W3C//DTD SVG 1.1//EN" "http://www.w3.org/Graphics/SVG/1.1/DTD/svg11.dtd">
<svg version="1.1" id="레이어_1" xmlns="http://www.w3.org/2000/svg" xmlns:xlink="http://www.w3.org/1999/xlink" x="0px"
	 y="0px" viewBox="0 0 80 73" style="enable-background:new 0 0 80 73;" xml:space="preserve">
<style type="text/css">
	.st0{fill-rule:evenodd;clip-rule:evenodd;fill:#FFCF97;}
</style>
<g>
	<path class="st0" d="M65.7,17.3C59.1,38.5,39.6,54,16.4,54.6c-0.7,0-1.6,0.1-2.3-0.1c-1.5-0.4-2.7-1.8-2.7-3.5
		c0-1.7,1.2-3.2,2.9-3.5c0.6-0.1,1.3-0.1,1.9-0.1C36.5,46.9,53.5,33.3,59,14.6l-6.9,2.9c-0.9,0.4-1.9,0.5-2.8,0.1
		c-1.8-0.7-2.6-2.7-1.9-4.5c0.4-0.9,1.1-1.6,2-1.9L62,5.9c3.1-1.3,6.5,0.2,7.7,3.2c2.2,5.1,3.1,7.2,5.3,12.4
		c0.4,0.8,0.5,1.8,0.1,2.8c-0.7,1.8-2.7,2.6-4.5,1.9c-0.9-0.4-1.6-1.1-2-2C68.1,22.9,66.7,19.7,65.7,17.3L65.7,17.3z M12.2,22.8h6.4
		c0.5,0,0.9,0.4,0.9,0.9v2.8c0,0.5-0.4,0.9-0.9,0.9h-6.4c-0.5,0-0.9-0.4-0.9-0.9v-2.8C11.3,23.3,11.7,22.8,12.2,22.8L12.2,22.8z
		 M56.5,61.1v-6.4c0-0.5,0.4-0.9,0.9-0.9h2.8c0.5,0,0.9,0.4,0.9,0.9v6.4c0,0.5-0.4,0.9-0.9,0.9h-2.8C56.9,62,56.5,61.6,56.5,61.1
		L56.5,61.1z M56.5,47.4V41c0-0.5,0.4-0.9,0.9-0.9h2.8c0.5,0,0.9,0.4,0.9,0.9v6.4c0,0.5-0.4,0.9-0.9,0.9h-2.8
		C56.9,48.3,56.5,47.9,56.5,47.4L56.5,47.4z M39.6,22.8H46c0.5,0,0.9,0.4,0.9,0.9v2.8c0,0.5-0.4,0.9-0.9,0.9h-6.4
		c-0.5,0-0.9-0.4-0.9-0.9v-2.8C38.7,23.3,39.1,22.8,39.6,22.8L39.6,22.8z M25.9,22.8h6.4c0.5,0,0.9,0.4,0.9,0.9v2.8
		c0,0.5-0.4,0.9-0.9,0.9h-6.4c-0.5,0-0.9-0.4-0.9-0.9v-2.8C25,23.3,25.4,22.8,25.9,22.8L25.9,22.8z M6.9,66.2h69.6
		c4.5,0,4.5,6.8,0,6.8h-73c-0.7,0-1.3-0.2-1.8-0.4c-0.9-0.5-1.6-1.5-1.6-2.9V5.3c0-4.5,6.8-4.5,6.8,0V66.2L6.9,66.2z"/>
</g>
</svg>
