<?xml version="1.0" encoding="utf-8"?>
<!-- Generator: Adobe Illustrator 18.1.0, SVG Export Plug-In . SVG Version: 6.00 Build 0)  -->
<!DOCTYPE svg PUBLIC "-//W3C//DTD SVG 1.1//EN" "http://www.w3.org/Graphics/SVG/1.1/DTD/svg11.dtd">
<svg version="1.1" id="Layer_1" xmlns="http://www.w3.org/2000/svg" xmlns:xlink="http://www.w3.org/1999/xlink" x="0px" y="0px"
	 viewBox="0.1 193.5 595.5 453.7" enable-background="new 0.1 193.5 595.5 453.7" xml:space="preserve">
<path fill="#FFFFFF" d="M595.3,455.4c-2.5-20.1-21.3-35.1-41.4-32.6c-11.3,1.3-20.1,7.5-26.3,16.3l-144.1-67.7
	c2.5-5,3.8-10,3.8-16.3c0-11.3-5-20.1-12.5-27.6l47.6-62.7c5,2.5,10,3.8,15,3.8c21.3,0,37.6-16.3,37.6-37.6s-16.3-37.6-37.6-37.6
	c-21.3,0-37.6,16.3-37.6,37.6c0,11.3,5,21.3,12.5,27.6l-47.6,62.7c-5-2.5-10-3.8-15-3.8c-11.3,0-20.1,5-27.6,12.5l-114-71.4
	c2.5-5,3.8-10,3.8-15c0-21.3-16.3-37.6-37.6-37.6s-37.6,16.3-37.6,37.6c0,11.3,5,21.3,12.5,28.8l10,6.3c5,1.3,10,2.5,15,2.5
	c11.3,0,20.1-5,27.6-11.3l114,71.4c-2.5,5-3.8,10-3.8,15c0,2.5,0,6.3,1.3,8.8l-144.1,67.7c-6.3-8.8-15-15-26.3-16.3
	c-12.5-1.3-23.8,3.8-32.6,11.3l1.3-10l-36.3-30.1c0-5,0-10-1.3-15c-6.3-20.1-26.3-31.3-46.4-26.3c-20.1,6.3-31.3,26.3-26.3,46.4
	c6.3,20.1,26.3,31.3,46.4,26.3c11.3-2.5,18.8-10,23.8-20.1l36.3,31.3v1.3c-3.8,5-6.3,11.3-7.5,17.5c-1.3,12.5,3.8,25.1,12.5,32.6
	l-50.1,92.7c-5-1.3-8.8-2.5-13.8-2.5c-21.3,0-37.6,16.3-37.6,37.6c0,21.3,16.3,37.6,37.6,37.6s37.6-16.3,37.6-37.6
	c0-11.3-5-21.3-12.5-27.6l50.1-94c2.5,1.3,6.3,2.5,8.8,2.5c20.1,2.5,38.8-12.5,41.4-32.6c1.3-5,0-10-1.3-15l144.1-67.7
	c6.3,10,18.8,17.5,31.3,17.5c10,0,20.1-3.8,26.3-11.3l145.4,67.7c-1.3,5-1.3,10-1.3,15c2.5,20.1,21.3,35.1,41.4,32.6
	C580.2,494.3,597.8,476.7,595.3,455.4z M412.3,231.1c0-13.8,11.3-25.1,25.1-25.1c13.8,0,25.1,11.3,25.1,25.1s-11.3,25.1-25.1,25.1
	C423.6,256.1,412.3,244.9,412.3,231.1z M174.2,268.7c-13.8,0-25.1-11.3-25.1-25.1c0-13.8,11.3-25.1,25.1-25.1
	c13.8,0,25.1,11.3,25.1,25.1C199.3,257.4,188,268.7,174.2,268.7z M45.1,406.5c-13.8,3.8-27.6-3.8-31.3-17.5
	c-3.8-13.8,3.8-27.6,17.5-31.3c13.8-3.8,27.6,3.8,31.3,17.5S58.9,402.8,45.1,406.5z M73.9,610.8c0,13.8-11.3,25.1-25.1,25.1
	s-25.1-11.3-25.1-25.1s11.3-25.1,25.1-25.1S73.9,597,73.9,610.8z M162.9,456.7c-1.3,13.8-13.8,23.8-27.6,21.3
	c-13.8-1.3-23.8-13.8-21.3-27.6c1.3-13.8,13.8-23.8,27.6-21.3C154.1,430.3,164.2,444.1,162.9,456.7z M349.6,381.5
	c-13.8,0-25.1-11.3-25.1-25.1s11.3-25.1,25.1-25.1s25.1,11.3,25.1,25.1S363.4,381.5,349.6,381.5z M561.4,485.5
	c-13.8,1.3-26.3-7.5-27.6-21.3c-1.3-13.8,7.5-26.3,21.3-27.6c13.8-1.3,26.3,7.5,27.6,21.3C584,471.7,574,484.2,561.4,485.5z"/>
</svg>
