<?xml version="1.0" encoding="utf-8"?>
<!-- Generator: Adobe Illustrator 18.1.0, SVG Export Plug-In . SVG Version: 6.00 Build 0)  -->
<!DOCTYPE svg PUBLIC "-//W3C//DTD SVG 1.1//EN" "http://www.w3.org/Graphics/SVG/1.1/DTD/svg11.dtd">
<svg version="1.1" id="레이어_1" xmlns="http://www.w3.org/2000/svg" xmlns:xlink="http://www.w3.org/1999/xlink" x="0px"
	 y="0px" viewBox="0 0 80 73" style="enable-background:new 0 0 80 73;" xml:space="preserve">
<style type="text/css">
	.st0{fill-rule:evenodd;clip-rule:evenodd;fill:#FFCF97;}
</style>
<path class="st0" d="M43.8,56.1c4.7,0,8.4,3.8,8.4,8.4c0,4.7-3.8,8.4-8.4,8.4c-4.7,0-8.4-3.8-8.4-8.4C35.3,59.9,39.1,56.1,43.8,56.1
	L43.8,56.1z M5.7,47.8L0.3,25.3c-0.8-3.5,1.8-7,5.3-7h49l2.1-7.7c1.7-6.2,7.7-10.6,14-10.6h4.8c5.8,0,5.8,8.8,0,8.8h-4.7
	c-2.7,0-5.1,1.6-5.8,4.3l-9.3,34.7c-0.8,3-2.5,5.6-5.5,5.6H11.2C8.2,53.3,6.4,50.8,5.7,47.8L5.7,47.8z M51.2,38.7h-9.7l-0.8,7.8h7.2
	c0.8,0,1.4-0.4,1.6-1.2L51.2,38.7L51.2,38.7z M35,46.5l0.8-7.8h-9.4l0.8,7.8H35L35,46.5z M21.4,46.5l-0.8-7.8H10.5l1.6,6.5
	c0.2,0.8,0.7,1.3,1.5,1.3H21.4L21.4,46.5z M9.1,33h11l-0.8-7.8H9.2c-1.1,0-1.8,1-1.5,2L9.1,33L9.1,33z M25,25.2l0.8,7.8h10.6
	l0.8-7.8H25L25,25.2z M42.8,25.2L42.1,33h10.7l1.5-5.7c0.3-1-0.5-2.1-1.5-2.1H42.8L42.8,25.2z M18.1,56.1c4.7,0,8.4,3.8,8.4,8.4
	c0,4.7-3.8,8.4-8.4,8.4c-4.7,0-8.4-3.8-8.4-8.4C9.7,59.9,13.4,56.1,18.1,56.1L18.1,56.1z M18.1,61.2c1.9,0,3.4,1.5,3.4,3.4
	c0,1.9-1.5,3.4-3.4,3.4c-1.9,0-3.4-1.5-3.4-3.4C14.7,62.7,16.2,61.2,18.1,61.2L18.1,61.2z M43.8,61.2c1.9,0,3.4,1.5,3.4,3.4
	c0,1.9-1.5,3.4-3.4,3.4c-1.9,0-3.4-1.5-3.4-3.4C40.4,62.7,41.9,61.2,43.8,61.2L43.8,61.2z"/>
</svg>
