<?xml version="1.0" encoding="utf-8"?>
<!-- Generator: Adobe Illustrator 18.1.0, SVG Export Plug-In . SVG Version: 6.00 Build 0)  -->
<!DOCTYPE svg PUBLIC "-//W3C//DTD SVG 1.1//EN" "http://www.w3.org/Graphics/SVG/1.1/DTD/svg11.dtd">
<svg version="1.1" id="레이어_1" xmlns="http://www.w3.org/2000/svg" xmlns:xlink="http://www.w3.org/1999/xlink" x="0px"
	 y="0px" viewBox="0 0 80 73" style="enable-background:new 0 0 80 73;" xml:space="preserve">
<style type="text/css">
	.st0{fill:#FFCF97;}
</style>
<g>
	<g>
		<path class="st0" d="M18.5,39.9l-3.4,0c-0.9,0-1.7,0.3-2.3,0.9c0,0,0,0,0,0c-0.6,0.6-1,1.4-1,2.3c0,0,0,5.8,0,8.2
			c-2.5,0-8.2,0-8.2,0c-0.9,0-1.7,0.3-2.3,0.9c-0.6,0.6-1,1.4-1,2.3l0,3.4c0,0.9,0.3,1.7,0.9,2.3c0.6,0.6,1.4,1,2.3,1
			c0,0,5.8,0,8.2,0c0,2.5,0,8.2,0,8.2c0,0.9,0.3,1.7,0.9,2.3c0.6,0.6,1.4,1,2.3,1l3.4,0c0.9,0,1.7-0.3,2.3-0.9c0.6-0.6,1-1.4,1-2.3
			v0c0,0,0-5.8,0-8.2c2.5,0,8.2,0,8.2,0c0.9,0,1.7-0.3,2.3-0.9c0,0,0,0,0,0c0.6-0.6,1-1.4,1-2.3l0-3.4c0-0.9-0.3-1.7-0.9-2.3v0
			c-0.6-0.6-1.4-1-2.3-1c0,0-5.8,0-8.2,0c0-2.5,0-8.2,0-8.2c0-0.9-0.3-1.7-0.9-2.3C20.2,40.2,19.3,39.9,18.5,39.9z"/>
	</g>
	<g>
		<g>
			<path class="st0" d="M47.9,64.4c0.4-0.4,0.9-0.7,1.4-1c0.2-1.3,1.3-2.6,2.5-3.8c0.1-0.1,0.2-0.2,0.3-0.3c-0.4-1-0.6-2.1-0.6-3.3
				c0-5.6,4.6-10.1,10.1-10.1c5.6,0,10.1,4.6,10.1,10.1c0,0.9-0.1,1.7-0.3,2.6c0.2,0.6,0.2,1.2,0.1,1.9l4.4,4.4
				c1.6-2.6,2.5-5.6,2.5-8.8c0-9.3-7.5-16.8-16.8-16.8c-9.3,0-16.8,7.5-16.8,16.8c0,3.2,0.9,6.3,2.5,8.8L47.9,64.4z"/>
			<path class="st0" d="M67.6,64.5c-0.1,0-0.2,0-0.3,0c-1.6,1.1-3.5,1.7-5.6,1.7c-2.4,0-4.5-0.8-6.3-2.2c-0.9,0.8-1.7,1.6-2.3,2.1
				c-0.1,0.8-0.6,1.6-1.2,2.3l-0.7,0.7c2.9,2.3,6.5,3.7,10.5,3.7c4,0,7.6-1.4,10.5-3.7L67.6,64.5z"/>
		</g>
		<path class="st0" d="M65.1,54.2c-0.3,0.3-0.3,0.8,0,1.1l3.1,3.1c-0.3,0.2-0.5,0.5-0.8,0.8c0,0,0-0.1-0.1-0.1l-3.6-3.6
			c-0.3-0.3-0.8-0.3-1.1,0c-0.3,0.3-0.3,0.8,0,1.1l3.6,3.6c0,0,0.1,0.1,0.1,0.1c-0.3,0.3-0.6,0.6-0.8,0.8l-3.1-3.1
			c-0.3-0.3-0.8-0.3-1.1,0c-0.3,0.3-0.3,0.8,0,1.1l3.6,3.6c0,0,0,0,0.1,0c0.8,0.7,1.9,0.8,3,0.5l8.7,8.7c0.9,0.9,2.1,1.1,2.8,0.4
			c0.7-0.7,0.5-1.9-0.4-2.8l-8.7-8.7c0.4-1.1,0.2-2.2-0.5-3c0,0,0,0,0-0.1l-3.6-3.6C66,53.9,65.5,53.9,65.1,54.2z"/>
		<path class="st0" d="M52.1,65.6c1.7-1.2,9.6-9,9.2-9.4c-1.2-1.2-5.1,0.7-8.7,4.3c-2.1,2.1-2.4,3.1-2.1,3.8
			c-0.6,0.1-1.2,0.4-1.8,0.9l-4.1,4.1c-1,1-1.3,2.4-0.6,3c0.7,0.7,2,0.4,3-0.6l4.1-4.1C51.7,67,52.1,66.2,52.1,65.6z"/>
	</g>
	<g>
		<path class="st0" d="M51.5,15.7c-4.4,0-10.1,3.5-10.1,3.5s5.7,3.5,10.1,3.5c4.4,0,5.8-1.6,5.8-3.5C57.2,17.3,55.8,15.7,51.5,15.7z
			 M34.7,19.5c0,0-5.7-3.5-10.1-3.5c-4.4,0-5.8,1.6-5.8,3.5c0,1.9,1.4,3.5,5.8,3.5C29,23,34.7,19.5,34.7,19.5z M41.4,5.9
			c0-4.4-1.6-5.8-3.5-5.8s-3.5,1.4-3.5,5.8c0,4.4,3.5,10.1,3.5,10.1S41.4,10.3,41.4,5.9z M35.6,17.1c0,0-1.5-6.5-4.6-9.6
			c-3.1-3.1-5.2-3-6.6-1.6C23,7.2,22.9,9.4,26,12.4C29.1,15.5,35.6,17.1,35.6,17.1z M40.5,21.6c0,0,1.5,6.5,4.6,9.6
			c3.1,3.1,5.2,3,6.6,1.6c1.4-1.4,1.5-3.5-1.6-6.6C47,23.2,40.5,21.6,40.5,21.6z M26.2,26.5c-3.1,3.1-3,5.2-1.6,6.6
			c1.4,1.4,3.5,1.5,6.6-1.6c3.1-3.1,4.6-9.6,4.6-9.6S29.3,23.4,26.2,26.5z M34.7,32.8c0,4.4,1.6,5.8,3.5,5.8c1.9,0,3.5-1.4,3.5-5.8
			c0-4.4-3.5-10.1-3.5-10.1S34.7,28.4,34.7,32.8z M49.9,12.2c3.1-3.1,3-5.2,1.6-6.6c-1.4-1.4-3.5-1.5-6.6,1.6
			c-3.1,3.1-4.6,9.6-4.6,9.6S46.8,15.3,49.9,12.2z"/>
	</g>
</g>
</svg>
