<?xml version="1.0" encoding="utf-8"?>
<!-- Generator: Adobe Illustrator 18.1.0, SVG Export Plug-In . SVG Version: 6.00 Build 0)  -->
<!DOCTYPE svg PUBLIC "-//W3C//DTD SVG 1.1//EN" "http://www.w3.org/Graphics/SVG/1.1/DTD/svg11.dtd">
<svg version="1.1" id="레이어_1" xmlns="http://www.w3.org/2000/svg" xmlns:xlink="http://www.w3.org/1999/xlink" x="0px"
	 y="0px" viewBox="0 0 80 73" style="enable-background:new 0 0 80 73;" xml:space="preserve">
<style type="text/css">
	.st0{fill-rule:evenodd;clip-rule:evenodd;fill:#FFCF97;}
</style>
<path class="st0" d="M32.3,0.1h13.2c5.4,0,9.9,4.5,9.9,9.9v1.8h-7.3v-1.7c0-2-1.7-3.7-3.7-3.7H33.3c-2,0-3.7,1.7-3.7,3.7v1.7h-7.3
	V10C22.4,4.5,26.8,0.1,32.3,0.1L32.3,0.1z M75.7,35.5V62c0,6-4.9,11-11,11H15.3c-6,0-11-4.9-11-11V35.9c4,6.5,10.7,11.1,18.4,13.7
	c2.4,0.8,4.8,1.4,7.3,1.9v0.2c0,3.7,3,6.8,6.8,6.8h5.8c3.7,0,6.8-3,6.8-6.8v-0.2c8.6-1.5,16.6-5.1,22.2-10.7
	C73.2,39.2,74.6,37.4,75.7,35.5L75.7,35.5z M37.1,42.2h5.2c2.1,0,3.9,1.8,3.9,3.9v5.2c0,2.1-1.8,3.9-3.9,3.9h-5.2
	c-2.1,0-3.9-1.8-3.9-3.9v-5.2C33.2,44,34.9,42.2,37.1,42.2L37.1,42.2z M14.1,14.4h50.8c9.5,0,12.5,3.5,11.1,11
	C73.8,38,62.4,45.5,49.3,48v-2.1c0-3.7-3-6.8-6.8-6.8h-5.8c-3.7,0-6.8,3-6.8,6.8V48c-12.9-2.4-24-10-26.1-22.6
	C2.8,18.7,4.9,14.4,14.1,14.4L14.1,14.4z"/>
</svg>
