<?xml version="1.0" encoding="utf-8"?>
<!-- Generator: Adobe Illustrator 18.1.0, SVG Export Plug-In . SVG Version: 6.00 Build 0)  -->
<!DOCTYPE svg PUBLIC "-//W3C//DTD SVG 1.1//EN" "http://www.w3.org/Graphics/SVG/1.1/DTD/svg11.dtd">
<svg version="1.1" id="레이어_1" xmlns="http://www.w3.org/2000/svg" xmlns:xlink="http://www.w3.org/1999/xlink" x="0px"
	 y="0px" viewBox="0 71.2 595 697.8" enable-background="new 0 71.2 595 697.8" xml:space="preserve">
<g>
	<path fill="#FFFFFF" d="M594.5,555.8v-1.6l-60.7-164.8l0,0L507.5,318v-0.8c-0.8-1.6-4.9-9.8-15.6-16.4c-10.7-6.6-26.2-9-46.7-1.6
		h-0.8c0,0-0.8,0-1.6,0.8c-3.3,1.6-11.5,4.9-18.9,12.3c-2.5,2.5-4.9,5.7-6.6,9.8c-10.7-5.7-26.2-8.2-45.1-0.8h-0.8
		c0,0-0.8,0-1.6,0.8c-3.3,1.6-11.5,4.9-18.9,12.3c-3.3,3.3-6.6,7.4-8.2,13.1c-4.9-2.5-9.8-4.1-14.8-4.1c-10.7-0.8-18.9,1.6-22.1,2.5
		c-0.8,0-1.6,0.8-1.6,0.8s0,0-0.8,0c-9.8,3.3-18,8.2-23,13.9l-20.5-49.2c21.3-25.4,34.4-58.2,34.4-94.3c0-80.4-66.4-146-147.6-146
		S0,136.8,0,218s65.6,146.8,146.8,146.8c4.9,0,9.8,0,14.8-0.8l29.5,73.8l0,0v0.8l31.2,85.3c-22.1-1.6-41.8,0-45.9,0.8l0,0
		c-10.7,0-19.7,2.5-27.9,4.9c-39.4,14.8-50,50-50.8,51.7v0.8c-2.5,9.8-1.6,19.7,0.8,27.1c5.7,15.6,18,23.8,27.9,28.7
		c9.8,4.9,18,6.6,18.9,6.6c53.3,10.7,99.2,30.3,131.2,47.6c16.4,9,28.7,16.4,36.9,22.1c4.1,3.3,7.4,4.9,9.8,6.6
		c2.5,1.6,3.3,2.5,3.3,2.5s0.8,0,0.8,0.8L360,769l223-82l-14.8-41C601,608.3,594.5,556.6,594.5,555.8z M146.8,340.2
		c-67.2,0-122.2-54.1-122.2-122.2S79.5,95.8,146.8,95.8S268.9,150.8,268.9,218c0,24.6-6.6,46.7-19.7,65.6l0,0l-3.3-13.9
		c-9-25.4-39.4-39.4-68.9-28.7c-29.5,10.7-43.5,41-33.6,66.4l9.8,32.8C150.9,340.2,149.2,340.2,146.8,340.2z M369,742l-22.1-31.2
		c-0.8-2.5-2.5-4.9-4.9-7.4c-0.8-0.8-78.7-62.3-191.9-83.6c0,0,0,0-0.8,0c-2.5-0.8-8.2-2.5-14.8-5.7c-5.7-3.3-10.7-8.2-12.3-12.3
		c-0.8-2.5-1.6-5.7,0-10.7l0,0c1.6-4.9,11.5-27.1,35.3-35.3c5.7-2.5,12.3-3.3,20.5-4.1h0.8c0,0,8.2-0.8,20.5-0.8
		c12.3,0,27.9,0,41,2.5c4.1,0.8,9-0.8,11.5-4.9c2.5-2.5,3.3-6.6,2.5-9.8l-7.4-21.3l-43.5-118.1l0,0l-38.5-105
		c-4.1-11.5,4.1-25.4,19.7-30.3c14.8-5.7,30.3-0.8,34.4,10.7l38.5,104.1l9.8,27.9l27.9,76.3c1.6,4.9,6.6,8.2,11.5,8.2
		c1.6,0,3.3,0,4.9-0.8c6.6-2.5,9.8-9.8,7.4-16.4V473l0,0l-4.9-13.9c-0.8-3.3-1.6-6.6-2.5-9.8l-20.5-56.6c0-1.6,0.8-2.5,1.6-4.9
		c1.6-4.1,6.6-9.8,19.7-14.8c0,0,0.8,0,1.6-0.8c0,0,0,0,0.8,0c1.6-0.8,7.4-2.5,13.1-1.6c4.9,0.8,9,2.5,13.1,8.2l25.4,69.7
		c2.5,6.6,9.8,10.7,15.6,8.2c0.8,0,1.6-0.8,2.5-1.6c4.9-3.3,6.6-9.8,4.9-15.6l-25.4-69.7c-0.8-7.4,1.6-11.5,4.9-14.8
		c4.1-4.1,9-6.6,10.7-7.4c0.8,0,0.8,0,0.8,0c0.8,0,1.6-0.8,1.6-0.8c13.9-4.9,21.3-3.3,25.4-1.6c3.3,1.6,5.7,4.1,5.7,4.9l0.8,1.6
		l0.8,2.5l26.2,70.5c0,0.8,0.8,1.6,0.8,2.5l0,0c3.3,4.9,9,8.2,14.8,5.7c5.7-1.6,8.2-8.2,7.4-13.9h0.8l-26.2-72.2
		c-0.8-6.6,1.6-10.7,4.9-13.9c4.1-4.1,9-6.6,10.7-7.4c0.8,0,0.8,0,0.8,0c0.8,0,1.6-0.8,1.6-0.8c13.9-4.9,21.3-3.3,25.4-1.6
		c3.3,1.6,5.7,4.1,5.7,4.9l28.7,77.1l0,0l56.6,154.1c0,0,0,0,0,0.8c0.8,9.8,0.8,51.7-24.6,76.3l-7.4,5.7l12.3,32.8L369,742z"/>
</g>
</svg>
