<?xml version="1.0" encoding="utf-8"?>
<!-- Generator: Adobe Illustrator 17.1.0, SVG Export Plug-In . SVG Version: 6.00 Build 0)  -->
<!DOCTYPE svg PUBLIC "-//W3C//DTD SVG 1.1//EN" "http://www.w3.org/Graphics/SVG/1.1/DTD/svg11.dtd">
<svg version="1.1" id="Layer_1" xmlns="http://www.w3.org/2000/svg" xmlns:xlink="http://www.w3.org/1999/xlink" x="0px" y="0px"
	 viewBox="0 0 252.3 32.4" enable-background="new 0 0 252.3 32.4" xml:space="preserve">
<g>
	<g>
		<path fill="#CDCDCD" d="M29.3,19.8c0,1.1-0.9,2-2,2h-1.9c-1.1,0-2-0.9-2-2v-1.9c0-1.1,0.9-2,2-2h1.9c1.1,0,2,0.9,2,2V19.8z"/>
		<rect x="23.4" y="17.8" fill="#CDCDCD" width="5.9" height="14.6"/>
		<path fill="#CDCDCD" d="M17.6,32.4c0-5.1,0-10.1,0-15.2c0-1.2,0-2.5,0-3.7V12h1.5c0.5,0,0.9,0,1.4,0c1,0,2,0,2.9,0
			c2,0,3.9,0,5.9,0c0.8,0,1.5,0,2.3,0c0.7,0,1.4,0,2.1,0h1.5v1.5c0,1.2,0,2.5,0,3.7c0,5.1,0,10.1,0,15.2H41c0-7.3,0-14.5,0-21.8
			c0-2.5-2-4.5-4.5-4.5c-0.4,0-0.9,0-1.3,0c-5.8,0-11.7,0-17.5,0c-0.4,0-0.9,0-1.3,0c-2.5,0-4.5,2-4.5,4.5c0,7.3,0,14.5,0,21.8H17.6
			z"/>
		<rect x="0" y="8.8" fill="#CDCDCD" width="5.8" height="23.6"/>
		<path fill="#CDCDCD" d="M70.2,6.1c0,3.8,0,7.6,0,11.5c0,2.5,0,5,0,7.5v1.5h-1.5c-0.9,0-1.8,0-2.8,0c-2.6,0-5.2,0-7.8,0
			c-1.3,0-2.7,0-4,0h-1.5V25c0-2.5,0-5,0-7.5c0-3.8,0-7.6,0-11.5h-5.9c0,7.3,0,14.5,0,21.8c0,2.5,2,4.5,4.5,4.5c0.4,0,0.9,0,1.3,0
			c5.9,0,11.7,0,17.6,0c0.4,0,0.9,0,1.3,0c2.5,0,4.5-2,4.5-4.5c0-7.3,0-14.5,0-21.8H70.2z"/>
		<path fill="#CDCDCD" d="M11.7,4.1c0,1-0.8,1.7-1.7,1.7H7.6c-1,0-1.7-0.8-1.7-1.7V1.7c0-1,0.8-1.7,1.7-1.7H10c1,0,1.7,0.8,1.7,1.7
			V4.1z"/>
		<path fill="#CDCDCD" d="M5.9,10c0,1-0.8,1.7-1.7,1.7H1.7c-1,0-1.7-0.8-1.7-1.7V7.6c0-1,0.8-1.7,1.7-1.7h2.4c1,0,1.7,0.8,1.7,1.7
			V10z"/>
	</g>
	<g>
		<g>
			<path fill="#CDCDCD" d="M101.8,22.7v5.6c0,0.4,0,0.8,0,1.2c0,0.5,0,0.9,0.1,1.2h-2.4c0.1-0.4,0.1-0.8,0.1-1.2c0-0.4,0-0.8,0-1.2
				v-5.6H94c-0.7,0-1.3,0-1.9,0c-0.6,0-1.3,0-1.9,0.1v-2c0.7,0.1,1.3,0.1,1.9,0.1c0.6,0,1.3,0,1.9,0h13.3c0.7,0,1.3,0,1.9,0
				s1.3,0,1.9-0.1v2c-0.7-0.1-1.3-0.1-1.9-0.1c-0.6,0-1.3,0-1.9,0H101.8z M106.1,10.9h-4.3c0.1,0.9,0.4,1.7,1,2.4s1.3,1.3,2.1,1.8
				c0.8,0.5,1.6,0.9,2.5,1.2c0.9,0.3,1.8,0.6,2.7,0.7c-0.3,0.3-0.5,0.6-0.8,0.8c-0.2,0.3-0.5,0.5-0.7,0.8c-0.7-0.2-1.3-0.4-2.1-0.6
				c-0.7-0.3-1.4-0.6-2.2-1c-0.8-0.4-1.5-0.9-2.2-1.5c-0.7-0.6-1.2-1.3-1.6-2.1c-0.4,0.7-0.8,1.2-1.4,1.8c-0.5,0.5-1.1,1-1.8,1.4
				c-0.7,0.5-1.5,0.9-2.4,1.2s-1.7,0.6-2.5,0.8c-0.2-0.2-0.4-0.5-0.7-0.8c-0.3-0.3-0.6-0.6-0.8-0.8c1.1-0.2,2.2-0.5,3.2-0.9
				s1.9-0.8,2.6-1.4c0.7-0.5,1.3-1.1,1.8-1.7c0.5-0.7,0.7-1.4,0.8-2.2h-4.3c-0.5,0-0.9,0-1.2,0s-0.8,0-1.2,0.1V9
				c0.4,0.1,0.8,0.1,1.2,0.1s0.8,0,1.2,0h11c0.4,0,0.8,0,1.2,0s0.8,0,1.2-0.1v2c-0.5-0.1-0.9-0.1-1.2-0.1S106.6,10.9,106.1,10.9z"/>
			<path fill="#CDCDCD" d="M120.8,11.2v0.3c0,0.9,0.1,1.7,0.4,2.4c0.3,0.7,0.7,1.4,1.2,2c0.6,0.7,1.2,1.3,2,1.8
				c0.8,0.5,1.6,0.9,2.4,1.1c-0.3,0.3-0.5,0.5-0.8,0.8c-0.3,0.3-0.5,0.6-0.6,0.8c-0.5-0.2-1.1-0.5-1.6-0.8c-0.6-0.3-1.1-0.7-1.6-1.1
				c-0.5-0.4-1-0.8-1.4-1.3s-0.8-1-1.1-1.6c-0.2,0.6-0.5,1.1-0.8,1.6c-0.3,0.5-0.7,1-1.1,1.4c-0.5,0.5-1.1,1-1.7,1.4
				c-0.6,0.4-1.2,0.8-1.9,1.1c-0.2-0.2-0.5-0.4-0.8-0.7c-0.3-0.3-0.6-0.5-0.9-0.7c0.9-0.4,1.8-0.9,2.6-1.4c0.8-0.6,1.5-1.2,2.1-1.9
				c0.5-0.7,0.9-1.4,1.2-2.2c0.3-0.8,0.4-1.7,0.4-2.6v-0.4c0-0.5,0-0.8,0-1.1c0-0.3-0.1-0.7-0.1-1.1h2.5c-0.1,0.5-0.1,0.8-0.1,1.2
				C120.8,10.3,120.8,10.7,120.8,11.2z M131.7,28.5c0,0.4,0,0.8,0,1.2s0.1,0.8,0.1,1.2h-2.4c0.1-0.4,0.1-0.7,0.1-1.2
				c0-0.4,0-0.8,0-1.2v-3.9h-10.3c-0.5,0-1,0-1.4,0c-0.4,0-0.9,0-1.4,0.1v-2c0.5,0.1,1,0.1,1.4,0.1s0.9,0,1.4,0h12.5
				c-0.1,0.3-0.1,0.6-0.1,0.9c0,0.2,0,0.5,0,0.8V28.5z M131.7,10.8v10.9h-2.1V10.8c0-0.4,0-0.8,0-1.3s-0.1-0.8-0.1-1.3h2.3
				c-0.1,0.4-0.1,0.9-0.1,1.3C131.7,10,131.7,10.4,131.7,10.8z"/>
			<path fill="#CDCDCD" d="M142.4,24.7v-2.4c-1.3-0.1-2.3-0.5-3.1-1.2c-0.8-0.7-1.2-1.4-1.2-2.4c0-0.5,0.1-1,0.4-1.4
				s0.6-0.8,1.1-1.1c0.5-0.3,1-0.6,1.7-0.8c0.7-0.2,1.4-0.3,2.2-0.3c0.8,0,1.5,0.1,2.2,0.3c0.7,0.2,1.2,0.5,1.7,0.8
				c0.5,0.3,0.8,0.7,1.1,1.2c0.3,0.4,0.4,0.9,0.4,1.4c0,0.9-0.4,1.6-1.2,2.3c-0.8,0.6-1.8,1-3.1,1.2v2.4c1.1-0.1,2.3-0.1,3.6-0.2
				c1.3-0.1,2.5-0.2,3.5-0.3v1.8c-2.2,0.3-4.4,0.4-6.5,0.5c-2.1,0.1-4.3,0.1-6.7,0.1c-0.5,0-0.9,0-1.3,0c-0.4,0-0.8,0-1.3,0.1v-2
				c0.5,0.1,0.9,0.1,1.3,0.1c0.4,0,0.8,0,1.3,0L142.4,24.7z M147.7,14.1h-8.7c-0.4,0-0.7,0-1,0c-0.3,0-0.6,0-1,0.1v-1.9
				c0.4,0.1,0.7,0.1,1,0.1s0.6,0,1,0h8.7c0.4,0,0.7,0,1,0c0.3,0,0.6,0,1-0.1v1.9c-0.4,0-0.7-0.1-1-0.1
				C148.4,14.1,148.1,14.1,147.7,14.1z M145.1,10.4h-3.4c-0.2,0-0.3,0-0.4,0c-0.1,0-0.3,0-0.4,0c-0.1,0-0.3,0-0.4,0
				c-0.1,0-0.3,0-0.4,0V8.6c0.3,0,0.6,0.1,0.8,0.1c0.3,0,0.5,0,0.8,0h3.4c0.3,0,0.6,0,0.8,0s0.6,0,0.9-0.1v1.8c-0.3,0-0.6,0-0.9,0
				C145.6,10.4,145.4,10.4,145.1,10.4z M143.5,20.8c1,0,1.8-0.2,2.4-0.6c0.6-0.4,0.9-0.9,0.9-1.5c0-0.6-0.3-1.1-0.9-1.5
				c-0.6-0.4-1.4-0.6-2.4-0.6c-0.9,0-1.7,0.2-2.4,0.6c-0.6,0.4-1,0.9-1,1.5c0,0.6,0.3,1.1,1,1.5C141.7,20.6,142.5,20.8,143.5,20.8z
				 M154.7,27.4c0,0.6,0,1.1,0,1.7c0,0.6,0,1.1,0.1,1.7h-2.3c0.1-0.6,0.1-1.1,0.1-1.7c0-0.6,0-1.1,0-1.7V11.7c0-0.6,0-1.1,0-1.7
				c0-0.6-0.1-1.1-0.1-1.7h2.3c-0.1,0.6-0.1,1.1-0.1,1.7s0,1.1,0,1.7V27.4z"/>
			<path fill="#CDCDCD" d="M165.4,11.8v1.9c0,1.2,0.1,2.2,0.4,3.2c0.2,1,0.6,1.9,1.1,2.7c0.6,0.9,1.2,1.8,2,2.6
				c0.8,0.8,1.7,1.4,2.8,2.1c-0.3,0.2-0.6,0.5-0.9,0.8c-0.3,0.3-0.5,0.5-0.7,0.7c-0.6-0.4-1.1-0.8-1.7-1.3c-0.5-0.5-1.1-1-1.5-1.5
				c-0.6-0.6-1.1-1.3-1.5-2c-0.4-0.7-0.8-1.4-1.1-2.2c-0.2,0.7-0.5,1.4-0.9,2.1c-0.4,0.7-0.9,1.4-1.4,2.1c-0.6,0.7-1.1,1.3-1.7,1.9
				c-0.6,0.6-1.2,1.1-1.8,1.4c-0.2-0.2-0.5-0.4-0.9-0.7c-0.4-0.3-0.7-0.5-1-0.7c1.1-0.7,2-1.4,2.8-2.2c0.8-0.8,1.5-1.7,2.1-2.7
				c0.5-1,0.9-2,1.2-3.1c0.3-1.1,0.4-2.3,0.4-3.5v-1.5c0-0.5,0-0.9,0-1.3c0-0.4-0.1-0.8-0.1-1.3h2.4c-0.1,0.5-0.1,0.9-0.1,1.3
				C165.4,11,165.4,11.4,165.4,11.8z M175.6,17h1.4c0.3,0,0.6,0,1,0c0.3,0,0.7,0,1-0.1V19c-0.3,0-0.6-0.1-1-0.1s-0.7,0-0.9,0h-1.4
				v8.5c0,0.6,0,1.1,0,1.7c0,0.6,0,1.1,0.1,1.7h-2.4c0.1-0.6,0.1-1.1,0.1-1.7c0-0.6,0-1.1,0-1.7V11.7c0-0.6,0-1.1,0-1.7
				c0-0.6-0.1-1.1-0.1-1.7h2.4c-0.1,0.6-0.1,1.1-0.1,1.7c0,0.6,0,1.1,0,1.7V17z"/>
			<path fill="#CDCDCD" d="M187.1,17.5c0-1.5,0.2-2.8,0.5-3.8s0.8-2,1.3-2.7c0.5-0.7,1.1-1.2,1.8-1.5c0.7-0.3,1.4-0.5,2-0.5
				c0.7,0,1.4,0.2,2.1,0.5c0.7,0.3,1.3,0.8,1.8,1.5c0.5,0.7,0.9,1.6,1.2,2.7c0.3,1.1,0.5,2.3,0.5,3.8s-0.2,2.7-0.5,3.8
				c-0.3,1.1-0.7,2-1.2,2.7c-0.5,0.7-1.1,1.2-1.8,1.6c-0.7,0.3-1.4,0.5-2.1,0.5c-0.7,0-1.4-0.2-2.1-0.5c-0.7-0.3-1.3-0.9-1.8-1.6
				c-0.5-0.7-1-1.6-1.3-2.6C187.3,20.2,187.1,18.9,187.1,17.5z M189.3,17.4c0,0.9,0.1,1.7,0.2,2.5c0.2,0.8,0.4,1.5,0.7,2.1
				c0.3,0.6,0.7,1.1,1.1,1.5c0.4,0.4,0.9,0.5,1.5,0.5c0.6,0,1-0.2,1.5-0.5c0.4-0.4,0.8-0.9,1.1-1.5c0.3-0.6,0.5-1.3,0.7-2.1
				c0.2-0.8,0.2-1.7,0.2-2.5c0-0.9-0.1-1.7-0.2-2.5c-0.2-0.8-0.4-1.5-0.7-2.1c-0.3-0.6-0.6-1.1-1.1-1.5c-0.4-0.4-0.9-0.6-1.5-0.6
				c-0.6,0-1.1,0.2-1.5,0.6s-0.8,0.9-1.1,1.5c-0.3,0.6-0.5,1.3-0.7,2.1S189.3,16.6,189.3,17.4z M204.3,16.2h1.5c0.3,0,0.6,0,1,0
				c0.3,0,0.7,0,1-0.1v2.1c-0.3,0-0.6-0.1-1-0.1c-0.3,0-0.7,0-0.9,0h-1.5v9.3c0,0.6,0,1.1,0,1.7c0,0.6,0,1.1,0.1,1.7h-2.3
				c0.1-0.6,0.1-1.1,0.1-1.7c0-0.6,0-1.1,0-1.7V11.7c0-0.6,0-1.1,0-1.7c0-0.6-0.1-1.1-0.1-1.7h2.3c-0.1,0.6-0.1,1.1-0.1,1.7
				s0,1.1,0,1.7V16.2z"/>
			<path fill="#CDCDCD" d="M209.7,14.2c0-0.8,0.1-1.5,0.4-2.2s0.7-1.3,1.2-1.8c0.5-0.5,1.1-0.9,1.9-1.2c0.7-0.3,1.5-0.5,2.4-0.5
				c0.9,0,1.6,0.2,2.4,0.5c0.7,0.3,1.3,0.7,1.9,1.2c0.5,0.5,0.9,1.1,1.2,1.8c0.3,0.7,0.4,1.4,0.4,2.2c0,0.8-0.1,1.5-0.4,2.2
				c-0.3,0.7-0.7,1.3-1.2,1.8c-0.5,0.5-1.2,0.9-1.9,1.2c-0.7,0.3-1.5,0.4-2.4,0.4c-0.9,0-1.7-0.1-2.4-0.4s-1.3-0.7-1.9-1.2
				c-0.5-0.5-0.9-1.1-1.2-1.8S209.7,15,209.7,14.2z M215.6,18c1.2,0,2.1-0.4,2.8-1.1c0.6-0.8,1-1.7,1-2.7s-0.3-2-1-2.7
				c-0.6-0.7-1.6-1.1-2.8-1.1s-2.1,0.4-2.8,1.1c-0.7,0.7-1,1.7-1,2.7s0.3,2,1,2.7S214.4,18,215.6,18z M227.8,30.5H213v-6.1
				c0-0.3,0-0.7,0-1.1c0-0.4-0.1-0.7-0.1-1.1h15.1c-0.1,0.4-0.1,0.7-0.1,1.1c0,0.3,0,0.7,0,1.1V30.5z M225.7,28.7v-4.8h-10.7v4.8
				H225.7z M227.9,10.8V21h-2.1V10.8c0-0.4,0-0.8,0-1.3c0-0.4-0.1-0.8-0.1-1.3h2.3c-0.1,0.4-0.1,0.9-0.1,1.3
				C227.9,10,227.9,10.4,227.9,10.8z"/>
			<path fill="#CDCDCD" d="M246.6,22.9v5.4c0,0.4,0,0.8,0,1.2c0,0.4,0,0.9,0.1,1.3h-2.3c0-0.2,0-0.4,0-0.6c0-0.2,0-0.4,0-0.7
				c0-0.2,0-0.4,0-0.6s0-0.4,0-0.6v-5.3h-5.6v5.2c0,0.4,0,0.8,0,1.2c0,0.4,0,0.9,0.1,1.3h-2.3c0-0.2,0-0.4,0-0.6c0-0.2,0-0.4,0-0.7
				c0-0.2,0-0.4,0-0.6c0-0.2,0-0.4,0-0.6v-5.1H235c-0.7,0-1.3,0-1.9,0c-0.6,0-1.3,0-1.9,0.1v-2c0.7,0.1,1.3,0.1,1.9,0.1
				c0.6,0,1.3,0,1.9,0h13.3c0.7,0,1.3,0,1.9,0c0.6,0,1.3,0,1.9-0.1v2c-0.7,0-1.3-0.1-1.9-0.1c-0.6,0-1.3,0-1.9,0H246.6z M241.6,18.8
				c-1.3,0-2.4-0.1-3.4-0.4c-1-0.3-1.9-0.6-2.6-1.1c-0.7-0.5-1.2-1-1.6-1.6c-0.4-0.6-0.6-1.3-0.6-2.1c0-0.7,0.2-1.4,0.6-2
				c0.4-0.6,0.9-1.2,1.6-1.7c0.7-0.5,1.5-0.8,2.5-1.1c1-0.3,2.2-0.4,3.4-0.4c1.3,0,2.4,0.1,3.4,0.4c1,0.3,1.9,0.6,2.6,1.1
				c0.7,0.5,1.2,1,1.6,1.6c0.4,0.6,0.6,1.3,0.6,2c0,0.7-0.2,1.4-0.6,2c-0.4,0.6-0.9,1.2-1.6,1.6c-0.7,0.5-1.6,0.8-2.6,1.1
				C244,18.7,242.9,18.8,241.6,18.8z M235.7,13.7c0,0.5,0.1,1,0.4,1.4c0.3,0.4,0.7,0.8,1.2,1c0.5,0.3,1.1,0.5,1.9,0.7
				c0.7,0.2,1.5,0.2,2.4,0.2c0.8,0,1.6-0.1,2.3-0.2c0.7-0.1,1.3-0.4,1.9-0.6c0.5-0.3,0.9-0.6,1.2-1s0.5-0.9,0.5-1.4
				c0-0.5-0.2-1-0.5-1.4s-0.7-0.8-1.2-1.1c-0.5-0.3-1.1-0.5-1.9-0.7c-0.7-0.2-1.5-0.2-2.3-0.2c-0.9,0-1.6,0.1-2.4,0.2
				c-0.7,0.2-1.4,0.4-1.9,0.7c-0.5,0.3-0.9,0.6-1.2,1C235.8,12.7,235.7,13.2,235.7,13.7z"/>
		</g>
	</g>
</g>
</svg>
