<?xml version="1.0" encoding="utf-8"?>
<!-- Generator: Adobe Illustrator 18.1.0, SVG Export Plug-In . SVG Version: 6.00 Build 0)  -->
<!DOCTYPE svg PUBLIC "-//W3C//DTD SVG 1.1//EN" "http://www.w3.org/Graphics/SVG/1.1/DTD/svg11.dtd">
<svg version="1.1" id="레이어_1" xmlns="http://www.w3.org/2000/svg" xmlns:xlink="http://www.w3.org/1999/xlink" x="0px"
	 y="0px" viewBox="-155 285.9 285 271" style="enable-background:new -155 285.9 285 271;" xml:space="preserve">
<style type="text/css">
	.st0{fill:none;stroke:#12617F;stroke-miterlimit:10;}
	.st1{fill:#12617F;}
	.st2{fill:none;enable-background:new    ;}
	.st3{fill:#B8D0D9;}
</style>
<circle id="circle-1" class="st0" cx="-10" cy="426.9" r="108"/>
<circle id="circle-2" class="st1" cx="-122" cy="429.9" r="33"/>
<circle id="circle-3" class="st1" cx="-9" cy="318.9" r="33"/>
<circle id="circle-4" class="st1" cx="97" cy="429.9" r="33"/>
<circle id="circle-5" class="st1" cx="-8" cy="523.9" r="33"/>
<image style="overflow:visible;" width="64" height="64" xlink:href="9CA45E24.png"  transform="matrix(1 0 0 1 -42 378.89)">
</image>
<path class="st2" d="z"/>
<path class="st2" d="z"/>
<path class="st2" d="z"/>
<image style="overflow:visible;" width="38" height="41" xlink:href="9CA45E2B.png"  transform="matrix(1 0 0 1 78 409.89)">
</image>
<path class="st2" d="z"/>
<image style="overflow:visible;" width="40" height="30" xlink:href="9CA45E2C.png"  transform="matrix(1 0 0 1 -28 508.89)">
</image>
<path class="st2" d="z"/>
<g>
	<circle class="st3" cx="0.2" cy="317.1" r="2.7"/>
	<path class="st3" d="M0.2,320.7c-0.8,0-1.5-0.2-2.2-0.6c0,0.6-0.1,1.2-0.2,1.8c-1,0.2-1.8,1.1-1.8,2.2c0,0.9,0.5,1.7,1.3,2
		c-0.3,2.8-0.4,5.7,0.3,8.5c0.3,1,1.1,1.8,1.8,1.8c0.5,0,0.9,0,1.4,0c0.7,0,1.5-0.8,1.8-1.8c1.2-4.8,0.1-9.7-0.3-14.5
		C1.7,320.4,1,320.7,0.2,320.7z"/>
	<path class="st3" d="M4.9,302.2c-7.8-2.6-15.6,2.3-23.4,2.6c-1.9,0.1-3.7-0.1-5.6-0.8c-0.3-0.1-0.6-0.2-0.9-0.2v10.7
		c0.3,0,0.6,0,0.9-0.2c1.9-0.6,3.7-0.8,5.6-0.8c5,0.2,10,2.3,15,3.1c0.2-1.9,1.7-3.3,3.7-3.3c1.9,0,3.4,1.4,3.6,3.2
		c0.4-0.1,0.7-0.2,1.1-0.3c1.2-0.4,2.1-1.9,2.1-3.1c0-2.7,0-5.3,0-8C7,304.1,6,302.6,4.9,302.2z M-6,310.7c0,0.3-0.3,0.6-0.6,0.6
		c-0.3,0-0.6-0.3-0.6-0.6v-4.9c0-0.3,0.3-0.6,0.6-0.6c0.3,0,0.6,0.3,0.6,0.6V310.7z M-3.4,310.7c0,0.3-0.3,0.6-0.6,0.6
		c-0.3,0-0.6-0.3-0.6-0.6v-4.9c0-0.3,0.3-0.6,0.6-0.6c0.3,0,0.6,0.3,0.6,0.6V310.7z M-0.9,310.7c0,0.3-0.3,0.6-0.6,0.6
		c-0.3,0-0.6-0.3-0.6-0.6v-4.9c0-0.3,0.3-0.6,0.6-0.6c0.3,0,0.6,0.3,0.6,0.6V310.7z M1.7,310.7c0,0.3-0.3,0.6-0.6,0.6
		c-0.3,0-0.6-0.3-0.6-0.6v-4.9c0-0.3,0.3-0.6,0.6-0.6c0.3,0,0.6,0.3,0.6,0.6V310.7z M4.2,310.7c0,0.3-0.3,0.6-0.6,0.6
		c-0.3,0-0.6-0.3-0.6-0.6v-4.9c0-0.3,0.3-0.6,0.6-0.6c0.3,0,0.6,0.3,0.6,0.6V310.7z"/>
</g>
<g>
	<path class="st3" d="M-125.1,428.6h6.1c1,0,1.9-0.8,1.9-1.9v-13.2c0-1-0.8-1.9-1.9-1.9h-6.1c-1,0-1.9,0.8-1.9,1.9v13.2
		C-126.9,427.7-126.1,428.6-125.1,428.6z M-120.9,414.2c0-0.6,0.5-1,1-1c0.6,0,1,0.5,1,1v10.6c0,0.6-0.5,1-1,1c-0.6,0-1-0.5-1-1
		V414.2z"/>
	<path class="st3" d="M-111.1,431.9c-0.7-0.3-5.2-2.4-10-2.4c0,0,0,0,0,0c0,0-0.2,0-0.5,0c-3.3,0-11.3,0.4-13.6,4.5l-0.1,0.1l0,0.1
		c-0.2,0.8-0.3,2.5,0.8,4c0.6,1,5,7.7,7.6,9.4c0.1,0.1,2.5,1.6,5.5,1.6c0,0,0,0,0,0c1.8,0,3.4-0.5,4.7-1.6l0.1-0.1
		c1.4-1.3,8.1-8.1,8.1-11.4C-108.4,434.9-108.9,432.6-111.1,431.9z M-110.8,436L-110.8,436c0,1.6-3.8,6.3-7.4,9.8
		c-1,0.7-2.1,1.1-3.3,1.1c-2.3,0-4.2-1.2-4.2-1.3c-1.9-1.2-5.7-6.7-6.9-8.7l-0.1-0.1c-0.6-0.7-0.5-1.5-0.4-1.8
		c1.5-2.3,7.1-3.2,11.5-3.2c0.3,0,0.5,0,0.5,0c4.6,0,9.1,2.2,9.1,2.2l0.2,0.1C-110.8,434.4-110.8,435.9-110.8,436z"/>
	<path class="st3" d="M-118,434.7c0,0-2.6-1.9-4.1,1.1c0,0-1.6-2.8-4.3-0.7c0,0-2.2,2.2,0.9,4.8c0,0,2.7,1.5,3.7,3
		c0,0,1.4-1.8,3-2.6C-118.9,440.3-114.8,437.7-118,434.7z"/>
</g>
</svg>
