<?xml version="1.0" encoding="utf-8"?>
<!-- Generator: Adobe Illustrator 18.1.0, SVG Export Plug-In . SVG Version: 6.00 Build 0)  -->
<!DOCTYPE svg PUBLIC "-//W3C//DTD SVG 1.1//EN" "http://www.w3.org/Graphics/SVG/1.1/DTD/svg11.dtd">
<svg version="1.1" id="upsolution-logo" xmlns="http://www.w3.org/2000/svg" xmlns:xlink="http://www.w3.org/1999/xlink" x="0px"
	 y="0px" viewBox="0 0 595.3 90.2" style="enable-background:new 0 0 595.3 90.2;" xml:space="preserve">
<g id="upsolution">
	<path d="M126.9,21.4v40.7h22.2V21.4h7.6v38.4c0,4.7-0.7,7.6-1.7,9.3c-1,1.7-3.3,2.7-6.6,2.7h-21.2c-3.3,0-5.3-1-6.6-2.7
		c-1-1.7-1.7-4.7-1.7-9.3V21.4H126.9L126.9,21.4z"/>
	<path d="M253.2,40.9H233V30.3h27.5v-8.9h-9.9h-17.2c-3.3,0-5.3,1-6.6,2.7c-0.7,1.7-1.3,4.7-1.3,9.3V39c0,4.7,0.7,7.6,1.7,9.3
		c1,1.7,3.3,2.7,6.6,2.7h20.9v11.6h-28.5v9.6h27.2c3.3,0,5.6-1,6.6-2.7c1-1.7,1.7-4.7,1.7-9.3v-7.3c0-4.7-0.7-7.6-1.7-9.3
		C258.5,41.9,256.2,40.9,253.2,40.9z"/>
	<path d="M307.3,24c-1.3-1.7-3.3-2.7-6.6-2.7h-21.5c-3.3,0-5.6,1-6.6,2.7c-1,1.7-1.7,4.7-1.7,9.3v26.5c0,4.7,0.7,7.6,1.7,9.3
		c1.3,1.7,3.3,2.7,6.6,2.7h21.5c3.3,0,5.6-1,6.6-2.7c1-1.7,1.7-4.7,1.7-9.3V33.3C308.9,28.6,308.2,25.6,307.3,24z M300.9,62.1h-22.5
		V30.3h22.5V62.1z"/>
	<path d="M510.4,24c-1.3-1.7-3.3-2.7-6.6-2.7h-21.5c-3.3,0-5.6,1-6.6,2.7c-1,1.7-1.7,4.7-1.7,9.3v26.5c0,4.7,0.7,7.6,1.7,9.3
		c1.3,1.7,3.3,2.7,6.6,2.7h21.5c3.3,0,5.6-1,6.6-2.7c1-1.7,1.7-4.7,1.7-9.3V33.3C512.1,28.6,511.4,25.6,510.4,24z M504.1,62.1h-22.5
		V30.3h22.5V62.1z"/>
	<polygon points="352,71.7 352,62.1 326.8,62.1 326.8,21.4 318.8,21.4 318.8,71.7 	"/>
	<path d="M360.6,21.4v38.4c0,4.7,0.7,7.6,1.7,9.3c1,1.7,3.3,2.7,6.6,2.7h21.2c3.3,0,5.3-1,6.6-2.7c1-1.7,1.7-4.7,1.7-9.3V21.4h-7.6
		v40.7h-22.2V21.4H360.6z"/>
	<polygon points="446.5,30.3 446.5,21.4 408,21.4 408,30.3 423.3,30.3 423.3,71.7 431.2,71.7 431.2,30.3 	"/>
	<rect x="455.8" y="21.4" width="7.9" height="50.4"/>
	<path d="M529.3,71.7V44.5c0-1,0-2.3,0-3.7c0-1.3,0-3-0.3-4.3c0.6,0.8,0.6,0.9,1.3,2c0.7,0.7,0.8,1,1.7,2l22.9,31.1h5.3V21.2h-6.9
		v26.5c0,0.7,0,1.7,0,2.7c0,1.3,0.1,3.1,0.2,5.8c-0.7-1.1-0.9-1.4-1.6-2.5c-0.7-1-1.3-1.7-2-2.7L528,21.7h-5.3v50.4h6.6V71.7z"/>
	<path d="M200.8,23.7c-1-1.6-3-2.3-5.6-2.3h-28.5v50.4h7.6V52.3h20.9c2.7,0,4.3-0.6,5.6-2.3c1-1.4,1.7-4,1.7-7.3V31.4
		C202.5,27.6,201.8,25.3,200.8,23.7z M195,39.3c0,1.3,0,2.3-0.7,3c-0.4,0.7-1.4,1-2.7,1H174V30h17.5c1.4,0,2.3,0.3,2.7,1
		c0.4,0.7,0.7,1.7,0.7,3h0.1V39.3z"/>
</g>
<g id="mark">
	<path d="M588,20.3c-4,0-7.3,3.3-7.3,7.3s3.3,7.3,7.3,7.3s7.3-3.3,7.3-7.3S591.9,20.3,588,20.3z M588,33.9c-3.3,0-6.3-2.7-6.3-6.3
		c0.3-3.3,3-6.3,6.3-6.3s6.3,2.7,6.3,6.3C594.3,30.9,591.6,33.9,588,33.9z"/>
	<path d="M589.9,28.8c-0.2-0.2-0.5-0.4-0.8-0.6c0.7-0.1,1.2-0.3,1.5-0.7c0.3-0.3,0.5-0.8,0.5-1.4c0-0.4-0.1-0.8-0.3-1.2
		s-0.5-0.6-0.9-0.7c-0.4-0.1-0.9-0.2-1.7-0.2H585v7.5h1.5v-3.1h0.3c0.3,0,0.6,0,0.7,0.1c0.1,0.1,0.3,0.2,0.4,0.3
		c0.1,0.2,0.4,0.6,0.8,1.1l1.1,1.6h1.8l-0.9-1.5C590.4,29.4,590.1,29,589.9,28.8z M587.7,27.2h-1.1v-1.9h1.2c0.6,0,1,0,1.1,0
		c0.2,0.1,0.4,0.2,0.6,0.3c0.1,0.2,0.2,0.4,0.2,0.6c0,0.2,0,0.4-0.1,0.6c-0.1,0.1-0.2,0.2-0.4,0.3C589,27.2,588.4,27.2,587.7,27.2z"
		/>
</g>
<g id="logo-body">
	<path id="logo-top" class="sky-blue" d="M78.9,0.3H11.7C5.4,0.3,0.1,5.5,0.1,11.8v50v0.3c3.3-1.6,9.4-4.6,17.9-7.9c0-0.1,0-0.2,0-0.3
		c0-4.7,0-22.9,0-40.3h15.6c2.3,0,4.3,2,4.3,4.3v29.9c4.8-1.4,10-2.6,15.6-3.7v-6.3v-0.4v0.4H60c5.3,0,9.6-1.4,12.6-3.7v7.1
		c5.7-0.6,11.7-0.9,17.9-0.9l0,0V11.8C90.5,5.5,85.1,0.3,78.9,0.3z M59.7,32.4c-1.3,1.3-3.3,2-6.6,2V13.5c3,0,5,0.3,6.3,1.7
		c1.7,1.7,2.3,4.7,2.3,8.9C62,28.1,61.3,30.8,59.7,32.4z"/>
	<g id="logo-botton">
		<path class="blue" d="M53.4,44c-5.6,1.1-10.8,2.4-15.6,3.7v12.2h15.6V44z"/>
		<path class="blue" d="M72.6,41.1l-0.2,13.2c0,14.2-7.6,22.5-19.5,22.5H37.5C25,76.8,18.1,68.3,18,54.2c-8.5,3.3-14.6,6.3-17.9,7.9
			v16.2c0,6.6,5.3,11.7,11.6,11.7h67.2c6.3,0,11.6-5.3,11.6-11.6V40.1C84.2,39.8,77.3,40.5,72.6,41.1z"/>
	</g>
</g>
</svg>
