<?xml version="1.0" encoding="utf-8"?>
<!-- Generator: Adobe Illustrator 18.1.0, SVG Export Plug-In . SVG Version: 6.00 Build 0)  -->
<!DOCTYPE svg PUBLIC "-//W3C//DTD SVG 1.1//EN" "http://www.w3.org/Graphics/SVG/1.1/DTD/svg11.dtd">
<svg version="1.1" id="upsolution-logo" xmlns="http://www.w3.org/2000/svg" xmlns:xlink="http://www.w3.org/1999/xlink" x="0px"
	 y="0px" viewBox="1.5 0 169.4 159.5" style="enable-background:new 1.5 0 169.4 159.5;" xml:space="preserve">
<g id="upsolution">
	<path d="M4.4,141.6V156h7.9v-14.5H15v13.7c0,1.7-0.2,2.7-0.6,3.3c-0.4,0.6-1.2,1-2.3,1H4.5c-1.2,0-1.9-0.4-2.3-1
		c-0.4-0.6-0.6-1.7-0.6-3.3v-13.7H4.4L4.4,141.6z"/>
	<path d="M49.3,148.5h-7.2v-3.8h9.8v-3.2h-3.5h-6.1c-1.2,0-1.9,0.4-2.3,1c-0.2,0.6-0.5,1.7-0.5,3.3v2c0,1.7,0.2,2.7,0.6,3.3
		c0.4,0.6,1.2,1,2.3,1h7.4v4.1H39.7v3.4h9.7c1.2,0,2-0.4,2.3-1s0.6-1.7,0.6-3.3v-2.6c0-1.7-0.2-2.7-0.6-3.3
		C51.2,148.9,50.3,148.5,49.3,148.5z"/>
	<path d="M68.5,142.5c-0.5-0.6-1.2-1-2.3-1h-7.6c-1.2,0-2,0.4-2.3,1c-0.4,0.6-0.6,1.7-0.6,3.3v9.4c0,1.7,0.2,2.7,0.6,3.3
		c0.5,0.6,1.2,1,2.3,1h7.6c1.2,0,2-0.4,2.3-1s0.6-1.7,0.6-3.3v-9.4C69.1,144.1,68.8,143.1,68.5,142.5z M66.2,156h-8v-11.3h8V156z"/>
	<path d="M140.7,142.5c-0.5-0.6-1.2-1-2.3-1h-7.6c-1.2,0-2,0.4-2.3,1s-0.6,1.7-0.6,3.3v9.4c0,1.7,0.2,2.7,0.6,3.3
		c0.5,0.6,1.2,1,2.3,1h7.6c1.2,0,2-0.4,2.3-1c0.4-0.6,0.6-1.7,0.6-3.3v-9.4C141.3,144.1,141.1,143.1,140.7,142.5z M138.5,156h-8
		v-11.3h8V156z"/>
	<polygon points="84.4,159.5 84.4,156 75.5,156 75.5,141.6 72.6,141.6 72.6,159.5 	"/>
	<path d="M87.5,141.6v13.7c0,1.7,0.2,2.7,0.6,3.3c0.4,0.6,1.2,1,2.3,1H98c1.2,0,1.9-0.4,2.3-1c0.4-0.6,0.6-1.7,0.6-3.3v-13.7h-2.7
		V156h-7.9v-14.5H87.5z"/>
	<polygon points="118,144.7 118,141.6 104.3,141.6 104.3,144.7 109.8,144.7 109.8,159.5 112.6,159.5 112.6,144.7 	"/>
	<rect x="121.3" y="141.6" width="2.8" height="17.9"/>
	<path d="M147.5,159.5v-9.7c0-0.4,0-0.8,0-1.3c0-0.5,0-1.1-0.1-1.5c0.2,0.3,0.2,0.3,0.5,0.7c0.2,0.2,0.3,0.4,0.6,0.7l8.1,11.1h1.9
		v-17.9H156v9.4c0,0.2,0,0.6,0,1c0,0.5,0,1.1,0.1,2.1c-0.2-0.4-0.3-0.5-0.6-0.9c-0.2-0.4-0.5-0.6-0.7-1l-7.8-10.4h-1.9v17.9h2.3
		V159.5z"/>
	<path d="M30.7,142.4c-0.4-0.6-1.1-0.8-2-0.8H18.5v17.9h2.7v-6.9h7.4c1,0,1.5-0.2,2-0.8c0.4-0.5,0.6-1.4,0.6-2.6v-4
		C31.3,143.8,31,143,30.7,142.4z M28.6,147.9c0,0.5,0,0.8-0.2,1.1c-0.1,0.2-0.5,0.4-1,0.4h-6.3v-4.7h6.2c0.5,0,0.8,0.1,1,0.4
		c0.1,0.2,0.2,0.6,0.2,1.1h0V147.9z"/>
</g>
<g id="mark">
	<path d="M168.3,141.2c-1.4,0-2.6,1.2-2.6,2.6c0,1.4,1.2,2.6,2.6,2.6s2.6-1.2,2.6-2.6C170.9,142.4,169.7,141.2,168.3,141.2z
		 M168.3,146c-1.2,0-2.2-1-2.2-2.2c0.1-1.2,1.1-2.2,2.2-2.2s2.2,1,2.2,2.2C170.6,144.9,169.6,146,168.3,146z"/>
	<path d="M169,144.2c-0.1-0.1-0.2-0.1-0.3-0.2c0.2,0,0.4-0.1,0.5-0.2c0.1-0.1,0.2-0.3,0.2-0.5c0-0.1,0-0.3-0.1-0.4s-0.2-0.2-0.3-0.2
		c-0.1,0-0.3-0.1-0.6-0.1h-1.1v2.7h0.5v-1.1h0.1c0.1,0,0.2,0,0.2,0c0,0,0.1,0.1,0.1,0.1c0,0.1,0.1,0.2,0.3,0.4l0.4,0.6h0.6l-0.3-0.5
		C169.2,144.4,169.1,144.3,169,144.2z M168.2,143.6h-0.4V143h0.4c0.2,0,0.4,0,0.4,0c0.1,0,0.1,0.1,0.2,0.1c0,0.1,0.1,0.1,0.1,0.2
		s0,0.1,0,0.2c0,0-0.1,0.1-0.1,0.1S168.5,143.6,168.2,143.6z"/>
</g>
<g id="logo-body">
	<path id="logo-top" class="sky-blue" d="M125,0H34.1c-8.5,0-15.7,7.2-15.7,15.7v67.7v0.4c4.5-2.2,12.7-6.2,24.2-10.7c0-0.1,0-0.3,0-0.4
		c0-6.4,0-30.9,0-54.6h21.1c3.1,0,5.8,2.7,5.8,5.8v40.4c6.5-1.9,13.5-3.5,21.1-5v-8.5v-0.5v0.5h8.9c7.2,0,13-1.9,17-5v9.6
		c7.7-0.8,15.8-1.2,24.2-1.2l0,0V15.7C140.7,7.2,133.4,0,125,0z M99.1,43.5c-1.8,1.8-4.5,2.7-8.9,2.7V18c4.1,0,6.8,0.4,8.5,2.3
		c2.3,2.3,3.1,6.4,3.1,12C102.2,37.7,101.3,41.4,99.1,43.5z"/>
	<g id="logo-botton">
		<path class="sky-blue" d="M90.6,59.2c-7.6,1.5-14.6,3.2-21.1,5v16.5h21.1V59.2z"/>
		<path class="blue" d="M116.5,55.2l-0.3,17.9c0,19.2-10.3,30.4-26.4,30.4H69C52.1,103.5,42.7,92,42.6,73
			c-11.5,4.5-19.7,8.5-24.2,10.7v21.9c0,8.9,7.2,15.8,15.7,15.8H125c8.5,0,15.7-7.2,15.7-15.7V53.9
			C132.3,53.6,122.9,54.5,116.5,55.2z"/>
	</g>
</g>
</svg>
